<svg aria-hidden="true" style="position: absolute; width: 0; height: 0; overflow: hidden;" version="1.1" xmlns="http://www.w3.org/2000/svg" xmlns:xlink="http://www.w3.org/1999/xlink">
<defs>
<symbol id="icon-SlimMom" viewBox="0 0 192 32">
<path fill="#212121" style="fill: var(--color1, #212121)" d="M0.533 26.231l1.318-1.528c1.553 1.426 3.087 2.463 4.602 3.113 1.515 0.637 3.259 0.955 5.233 0.955 2.037 0 3.698-0.516 4.984-1.547s1.929-2.355 1.929-3.972c0-1.018-0.21-1.865-0.63-2.54-0.407-0.675-1.184-1.286-2.33-1.833-1.133-0.547-2.725-1.031-4.774-1.451-3.297-0.675-5.665-1.611-7.104-2.807-1.426-1.21-2.139-2.865-2.139-4.965 0-2.050 0.834-3.762 2.502-5.137s3.769-2.063 6.302-2.063c1.935 0 3.622 0.267 5.061 0.802 1.439 0.522 2.877 1.362 4.316 2.521l-1.28 1.604c-1.26-1.095-2.553-1.884-3.877-2.368-1.311-0.484-2.744-0.726-4.297-0.726-1.986 0-3.597 0.503-4.832 1.509-1.235 0.993-1.852 2.241-1.852 3.743 0 1.031 0.204 1.891 0.611 2.578 0.42 0.675 1.216 1.305 2.387 1.891 1.184 0.573 2.839 1.076 4.965 1.509 3.17 0.649 5.462 1.572 6.875 2.769 1.426 1.197 2.139 2.814 2.139 4.851 0 2.19-0.853 3.985-2.559 5.385-1.706 1.388-3.883 2.082-6.531 2.082-2.152 0-4.112-0.356-5.882-1.069-1.757-0.713-3.469-1.814-5.137-3.304zM30.283 30.222v-28.55h1.91v28.55h-1.91zM42.923 5.071v-2.616h2.368v2.616h-2.368zM43.152 30.222v-19.938h1.91v19.938h-1.91zM55.734 30.222v-19.938h1.929v3.552c0.369-0.586 0.738-1.095 1.108-1.528s0.815-0.847 1.337-1.241c0.535-0.407 1.152-0.719 1.852-0.936 0.713-0.216 1.496-0.325 2.349-0.325 1.629 0 3.005 0.401 4.125 1.203 1.133 0.789 1.999 1.821 2.597 3.094 1.668-2.865 4.068-4.297 7.2-4.297 2.355 0 4.22 0.758 5.596 2.273s2.062 3.533 2.062 6.054v12.089h-1.91v-11.859c0-2.139-0.522-3.807-1.566-5.003s-2.489-1.795-4.335-1.795c-1.757 0-3.247 0.637-4.469 1.91s-1.833 2.986-1.833 5.137v11.611h-1.91v-11.974c0-2.062-0.528-3.692-1.585-4.889-1.044-1.197-2.457-1.795-4.239-1.795s-3.291 0.694-4.526 2.082c-1.235 1.375-1.852 3.068-1.852 5.080v11.497h-1.929z"></path>
<path fill="#fc842d" style="fill: var(--color2, #fc842d)" d="M96.503 30.222v-27.385h1.91l11 16.195 10.981-16.195h1.929v27.385h-2.043v-23.776l-10.828 15.755h-0.153l-10.847-15.755v23.776h-1.948zM131.792 20.253c0-1.388 0.261-2.718 0.783-3.991s1.229-2.381 2.12-3.323c0.891-0.955 1.98-1.712 3.266-2.273 1.286-0.573 2.655-0.859 4.106-0.859 1.923 0 3.667 0.477 5.233 1.432 1.579 0.942 2.801 2.215 3.667 3.819 0.878 1.591 1.318 3.323 1.318 5.194 0 1.859-0.439 3.584-1.318 5.175s-2.113 2.871-3.705 3.839c-1.579 0.955-3.336 1.432-5.271 1.432-1.439 0-2.794-0.28-4.068-0.84s-2.355-1.311-3.247-2.253c-0.891-0.942-1.598-2.050-2.12-3.323-0.509-1.286-0.764-2.629-0.764-4.029zM133.855 20.253c0 2.406 0.789 4.45 2.368 6.13 1.591 1.668 3.539 2.502 5.844 2.502 1.451 0 2.801-0.382 4.049-1.146 1.248-0.777 2.241-1.827 2.979-3.151s1.108-2.769 1.108-4.335c0-2.394-0.802-4.431-2.406-6.111-1.604-1.693-3.539-2.54-5.806-2.54-1.477 0-2.839 0.388-4.087 1.165-1.248 0.764-2.234 1.814-2.96 3.151-0.726 1.324-1.089 2.769-1.089 4.335zM161.294 30.222v-19.938h1.929v3.552c0.369-0.586 0.738-1.095 1.108-1.528s0.815-0.847 1.337-1.241c0.535-0.407 1.152-0.719 1.852-0.936 0.713-0.216 1.496-0.325 2.349-0.325 1.63 0 3.005 0.401 4.125 1.203 1.133 0.789 1.999 1.821 2.597 3.094 1.668-2.865 4.068-4.297 7.199-4.297 2.356 0 4.22 0.758 5.596 2.273 1.374 1.515 2.062 3.533 2.062 6.054v12.089h-1.909v-11.859c0-2.139-0.523-3.807-1.566-5.003s-2.489-1.795-4.336-1.795c-1.756 0-3.246 0.637-4.468 1.91-1.223 1.273-1.834 2.986-1.834 5.137v11.611h-1.91v-11.974c0-2.062-0.528-3.692-1.585-4.889-1.044-1.197-2.457-1.795-4.24-1.795s-3.291 0.694-4.526 2.082c-1.235 1.375-1.852 3.068-1.852 5.080v11.497h-1.929z"></path>
</symbol>
<symbol id="icon-logo" viewBox="0 0 34 32">
<path d="M0 0h33.939v32h-33.939v-32z"></path>
</symbol>
</defs>
</svg>
